{
	"asset":{
		"generator":"Khronos glTF Blender I/O v3.5.30",
		"version":"2.0"
	},
	"scene":0,
	"scenes":[
		{
			"name":"Scene",
			"nodes":[
				0
			]
		}
	],
	"nodes":[
		{
			"mesh":0,
			"name":"Sphere"
		}
	],
	"materials":[
		{
			"doubleSided":true,
			"name":"Material.003",
			"pbrMetallicRoughness":{
				"baseColorTexture":{
					"index":0
				},
				"metallicFactor":0,
				"roughnessFactor":0.5
			}
		}
	],
	"meshes":[
		{
			"name":"Sphere.002",
			"primitives":[
				{
					"attributes":{
						"POSITION":0,
						"TEXCOORD_0":1,
						"NORMAL":2
					},
					"indices":3,
					"material":0
				}
			]
		}
	],
	"textures":[
		{
			"sampler":0,
			"source":0
		}
	],
	"images":[
		{
			"bufferView":4,
			"mimeType":"image/png",
			"name":"spaceship_body_color"
		}
	],
	"accessors":[
		{
			"bufferView":0,
			"componentType":5126,
			"count":7476,
			"max":[
				0.01603400707244873,
				1,
				1.639785647392273
			],
			"min":[
				-1.926853060722351,
				-0.8872005939483643,
				-1.7180370092391968
			],
			"type":"VEC3"
		},
		{
			"bufferView":1,
			"componentType":5126,
			"count":7476,
			"type":"VEC2"
		},
		{
			"bufferView":2,
			"componentType":5126,
			"count":7476,
			"type":"VEC3"
		},
		{
			"bufferView":3,
			"componentType":5123,
			"count":44361,
			"type":"SCALAR"
		}
	],
	"bufferViews":[
		{
			"buffer":0,
			"byteLength":89712,
			"byteOffset":0,
			"target":34962
		},
		{
			"buffer":0,
			"byteLength":59808,
			"byteOffset":89712,
			"target":34962
		},
		{
			"buffer":0,
			"byteLength":89712,
			"byteOffset":149520,
			"target":34962
		},
		{
			"buffer":0,
			"byteLength":88722,
			"byteOffset":239232,
			"target":34963
		},
		{
			"buffer":0,
			"byteLength":78144,
			"byteOffset":327956
		}
	],
	"samplers":[
		{
			"magFilter":9729,
			"minFilter":9987
		}
	],
	"buffers":[
		{
			"byteLength":406100,
			"uri":"data:application/octet-stream;base64,"
		}
	]
}
